<svg xmlns="http://www.w3.org/2000/svg" viewBox="0 0 480 480" fill="none" role="img" aria-label="FluxemDesk">
  <defs>
    <linearGradient id="heldeskBg" x1="0%" y1="0%" x2="100%" y2="100%">
      <stop offset="0%" stop-color="#dfd1e6"/>
      <stop offset="25%" stop-color="#9f79b4"/>
      <stop offset="55%" stop-color="#6e3a8f"/>
      <stop offset="80%" stop-color="#552569"/>
      <stop offset="100%" stop-color="#3d174f"/>
    </linearGradient>
    <linearGradient id="heldeskGlow" x1="50%" y1="0%" x2="50%" y2="100%">
      <stop offset="0%" stop-color="#ffffff" stop-opacity="0.45"/>
      <stop offset="100%" stop-color="#ffffff" stop-opacity="0"/>
    </linearGradient>
    <filter id="softShadow" x="-20%" y="-20%" width="140%" height="140%">
      <feDropShadow dx="0" dy="12" stdDeviation="18" flood-color="#552569" flood-opacity="0.18"/>
    </filter>
  </defs>

  <circle cx="240" cy="240" r="210" stroke="url(#heldeskBg)" stroke-width="1.5" opacity="0.2"/>
  <circle cx="240" cy="240" r="178" stroke="url(#heldeskBg)" stroke-width="1" opacity="0.14"/>

  <rect x="92" y="108" width="296" height="264" rx="36" fill="url(#heldeskBg)" opacity="0.14"/>
  <rect x="112" y="128" width="256" height="224" rx="28" fill="#ffffff" opacity="0.92" filter="url(#softShadow)"/>
  <rect x="112" y="128" width="256" height="72" rx="28" fill="url(#heldeskGlow)"/>

  <circle cx="148" cy="164" r="8" fill="#9f79b4" opacity="0.55"/>
  <circle cx="176" cy="164" r="8" fill="#6e3a8f" opacity="0.45"/>
  <circle cx="204" cy="164" r="8" fill="#dfd1e6" opacity="0.7"/>

  <rect x="136" y="196" width="168" height="44" rx="16" fill="url(#heldeskBg)" opacity="0.22"/>
  <rect x="176" y="252" width="152" height="44" rx="16" fill="url(#heldeskBg)" opacity="0.34"/>
  <path d="M176 296 L192 318 L208 296 Z" fill="url(#heldeskBg)" opacity="0.34"/>

  <g transform="translate(292 228)">
    <rect x="0" y="0" width="88" height="104" rx="16" fill="url(#heldeskBg)" filter="url(#softShadow)"/>
    <circle cx="44" cy="22" r="10" fill="#ffffff" opacity="0.25"/>
    <circle cx="44" cy="82" r="10" fill="#ffffff" opacity="0.25"/>
    <line x1="22" y1="46" x2="66" y2="46" stroke="#ffffff" stroke-width="4" stroke-linecap="round" opacity="0.9"/>
    <line x1="22" y1="58" x2="54" y2="58" stroke="#ffffff" stroke-width="4" stroke-linecap="round" opacity="0.75"/>
    <line x1="22" y1="70" x2="58" y2="70" stroke="#ffffff" stroke-width="4" stroke-linecap="round" opacity="0.6"/>
  </g>

  <circle cx="118" cy="118" r="10" fill="#9f79b4" opacity="0.55"/>
  <circle cx="362" cy="150" r="8" fill="#dfd1e6" opacity="0.65"/>
  <circle cx="350" cy="350" r="12" fill="#552569" opacity="0.4"/>
  <circle cx="130" cy="360" r="7" fill="#6e3a8f" opacity="0.5"/>
</svg>
